<svg width="24" height="24" viewBox="0 0 24 24" fill="none" xmlns="http://www.w3.org/2000/svg">
<path fill-rule="evenodd" clip-rule="evenodd" d="M10 2H9C6.172 2 4.757 2 3.879 2.879C3 3.757 3 5.172 3 8V21.25H16V8C16 5.172 16 3.757 15.121 2.879C14.243 2 12.828 2 10 2Z" fill="#ACD8F6"/>
<path d="M3 21.25H2C1.80109 21.25 1.61032 21.329 1.46967 21.4697C1.32902 21.6103 1.25 21.8011 1.25 22C1.25 22.1989 1.32902 22.3897 1.46967 22.5303C1.61032 22.671 1.80109 22.75 2 22.75H17.25C17.4489 22.75 17.6397 22.671 17.7803 22.5303C17.921 22.3897 18 22.1989 18 22C18 21.8011 17.921 21.6103 17.7803 21.4697C17.6397 21.329 17.4489 21.25 17.25 21.25H3ZM10.143 10.386C10.1949 10.3015 10.2294 10.2076 10.2448 10.1097C10.2601 10.0118 10.2559 9.91178 10.2324 9.8155C10.2088 9.71922 10.1664 9.62857 10.1076 9.54877C10.0488 9.46897 9.97482 9.40162 9.88984 9.35061C9.80486 9.29959 9.71061 9.26593 9.61254 9.25156C9.51447 9.23719 9.41453 9.2424 9.31849 9.2669C9.22244 9.29139 9.13221 9.33468 9.053 9.39425C8.97379 9.45383 8.90717 9.52852 8.857 9.614L7.357 12.114C7.28869 12.2278 7.2518 12.3577 7.2501 12.4904C7.24841 12.6231 7.28196 12.7539 7.34735 12.8694C7.41273 12.9849 7.50759 13.081 7.62225 13.1479C7.73692 13.2148 7.86727 13.25 8 13.25H9.675L8.857 14.614C8.75696 14.7844 8.72824 14.9875 8.77708 15.179C8.82591 15.3705 8.94836 15.535 9.1178 15.6367C9.28724 15.7384 9.48998 15.7691 9.68195 15.7222C9.87393 15.6752 10.0396 15.5544 10.143 15.386L11.643 12.886C11.7113 12.7722 11.7482 12.6423 11.7499 12.5096C11.7516 12.3769 11.718 12.2461 11.6527 12.1306C11.5873 12.015 11.4924 11.919 11.3777 11.8521C11.2631 11.7852 11.1327 11.75 11 11.75H9.325L10.143 10.386ZM16 17.75H17.571C17.946 17.75 18.25 18.054 18.25 18.429V18.5C18.25 19.0967 18.4871 19.669 18.909 20.091C19.331 20.5129 19.9033 20.75 20.5 20.75C21.0967 20.75 21.669 20.5129 22.091 20.091C22.5129 19.669 22.75 19.0967 22.75 18.5V7.602C22.75 7.445 22.75 7.337 22.744 7.232C22.6886 6.24116 22.2427 5.31269 21.504 4.65C21.4103 4.56937 21.3149 4.49069 21.218 4.414L19.968 3.414C19.8912 3.35114 19.8027 3.30416 19.7076 3.27577C19.6125 3.24737 19.5127 3.23813 19.414 3.24859C19.3153 3.25904 19.2197 3.28898 19.1326 3.33666C19.0456 3.38435 18.9689 3.44883 18.907 3.52638C18.845 3.60393 18.7991 3.693 18.7719 3.78843C18.7446 3.88385 18.7365 3.98374 18.7482 4.0823C18.7598 4.18086 18.7909 4.27614 18.8396 4.3626C18.8883 4.44906 18.9537 4.52499 19.032 4.586L20.265 5.572C20.409 5.688 20.459 5.728 20.502 5.767C20.945 6.164 21.213 6.721 21.247 7.316C21.2506 7.41795 21.2516 7.51999 21.25 7.622V8H20.5C20.1022 8 19.7206 8.15803 19.4393 8.43934C19.158 8.72064 19 9.10217 19 9.5V11.919C19 12.2339 19.0991 12.5407 19.2833 12.7961C19.4674 13.0515 19.7273 13.2425 20.026 13.342L21.25 13.75V18.5C21.25 18.6989 21.171 18.8897 21.0303 19.0303C20.8897 19.171 20.6989 19.25 20.5 19.25C20.3011 19.25 20.1103 19.171 19.9697 19.0303C19.829 18.8897 19.75 18.6989 19.75 18.5V18.429C19.7497 17.8512 19.5201 17.2971 19.1115 16.8885C18.7029 16.4799 18.1488 16.2503 17.571 16.25H16V17.75Z" fill="#01A8EF"/>
</svg>
