<svg width="24" height="24" viewBox="0 0 24 24" fill="none" xmlns="http://www.w3.org/2000/svg">
<path d="M21.6801 16.88V18.88C21.6801 19.43 21.2501 19.88 20.7101 19.88H3.29007C2.76007 19.88 2.32007 19.43 2.32007 18.88V16.88C2.32007 16.33 2.75007 15.88 3.29007 15.88H20.7101C21.2401 15.88 21.6801 16.33 21.6801 16.88Z" fill="#01A8EF"/>
<path d="M16.78 5.35C16.44 5.09 16 5.38 16 5.88V7.38C16 8.07 15.55 8.63 15 8.63C14.45 8.63 14 8.07 14 7.38V5.39V5.37C14 4.68 13.55 4.12 13 4.12H11C10.45 4.12 10 4.68 10 5.37V5.39V7.38C10 8.07 9.55 8.63 9 8.63C8.45 8.63 8 8.07 8 7.38V5.88C8 5.38 7.56 5.09 7.22 5.35C4.68 7.34 3 10.86 3 14.87H21C21 10.85 19.31 7.33 16.78 5.35Z" fill="#ACD8F6"/>
</svg>
