<svg width="24" height="24" viewBox="0 0 24 24" fill="none" xmlns="http://www.w3.org/2000/svg">
<path d="M3 10C3 6.229 3 4.343 4.172 3.172C5.344 2.001 7.229 2 11 2H13C16.771 2 18.657 2 19.828 3.172C20.999 4.344 21 6.229 21 10V14C21 17.771 21 19.657 19.828 20.828C18.656 21.999 16.771 22 13 22H11C7.229 22 5.343 22 4.172 20.828C3.001 19.656 3 17.771 3 14V10Z" fill="#ACD8F6"/>
<path d="M16.5189 16.501C16.6939 16.365 16.8529 16.206 17.1699 15.889L21.1269 11.931C21.2229 11.836 21.1789 11.671 21.0519 11.626C20.4322 11.4112 19.8699 11.0575 19.4079 10.592C18.9424 10.13 18.5887 9.56769 18.3739 8.94801C18.3289 8.82101 18.1639 8.77701 18.0689 8.87301L14.1099 12.83C13.7929 13.147 13.6339 13.306 13.4979 13.481C13.3359 13.6883 13.1986 13.9103 13.0859 14.147C12.9909 14.347 12.9199 14.561 12.7779 14.987L12.5939 15.537L12.3019 16.412L12.0289 17.232C11.9948 17.3348 11.99 17.445 12.015 17.5503C12.04 17.6557 12.0938 17.752 12.1703 17.8286C12.2469 17.9051 12.3432 17.9589 12.4485 17.9839C12.5539 18.0088 12.6641 18.004 12.7669 17.97L13.5869 17.697L14.4619 17.405L15.0119 17.221C15.4379 17.079 15.6519 17.009 15.8519 16.913C16.0886 16.7997 16.3116 16.6623 16.5189 16.501ZM22.3669 10.692C22.7725 10.2862 23.0004 9.73592 23.0003 9.16215C23.0002 8.58839 22.7722 8.03816 22.3664 7.63251C21.9606 7.22686 21.4103 6.99902 20.8365 6.99912C20.2628 6.99921 19.7125 7.22723 19.3069 7.63301L19.1809 7.76101C19.1201 7.82049 19.0748 7.894 19.049 7.97507C19.0231 8.05614 19.0176 8.14231 19.0329 8.22601C19.0529 8.33301 19.0879 8.49101 19.1529 8.67801C19.2829 9.05301 19.5289 9.54501 19.9919 10.008C20.4549 10.471 20.9469 10.717 21.3219 10.847C21.5099 10.912 21.6669 10.947 21.7739 10.967C21.8576 10.9814 21.9435 10.9755 22.0244 10.9497C22.1054 10.924 22.1789 10.8791 22.2389 10.819L22.3669 10.692Z" fill="#01A8EF"/>
<path fill-rule="evenodd" clip-rule="evenodd" d="M7.25 9C7.25 8.80109 7.32902 8.61032 7.46967 8.46967C7.61032 8.32902 7.80109 8.25 8 8.25H14.5C14.6989 8.25 14.8897 8.32902 15.0303 8.46967C15.171 8.61032 15.25 8.80109 15.25 9C15.25 9.19891 15.171 9.38968 15.0303 9.53033C14.8897 9.67098 14.6989 9.75 14.5 9.75H8C7.80109 9.75 7.61032 9.67098 7.46967 9.53033C7.32902 9.38968 7.25 9.19891 7.25 9ZM7.25 13C7.25 12.8011 7.32902 12.6103 7.46967 12.4697C7.61032 12.329 7.80109 12.25 8 12.25H11C11.1989 12.25 11.3897 12.329 11.5303 12.4697C11.671 12.6103 11.75 12.8011 11.75 13C11.75 13.1989 11.671 13.3897 11.5303 13.5303C11.3897 13.671 11.1989 13.75 11 13.75H8C7.80109 13.75 7.61032 13.671 7.46967 13.5303C7.32902 13.3897 7.25 13.1989 7.25 13ZM7.25 17C7.25 16.8011 7.32902 16.6103 7.46967 16.4697C7.61032 16.329 7.80109 16.25 8 16.25H9.5C9.69891 16.25 9.88968 16.329 10.0303 16.4697C10.171 16.6103 10.25 16.8011 10.25 17C10.25 17.1989 10.171 17.3897 10.0303 17.5303C9.88968 17.671 9.69891 17.75 9.5 17.75H8C7.80109 17.75 7.61032 17.671 7.46967 17.5303C7.32902 17.3897 7.25 17.1989 7.25 17Z" fill="#01A8EF"/>
</svg>
