<svg width="32" height="32" viewBox="0 0 32 32" fill="none" xmlns="http://www.w3.org/2000/svg">
<path d="M0 6C0 2.68629 2.68629 0 6 0H26C29.3137 0 32 2.68629 32 6V26C32 29.3137 29.3137 32 26 32H6C2.68629 32 0 29.3137 0 26V6Z" fill="white"/>
<path d="M19.5369 12.358C19.4508 12.0066 19.3149 11.6984 19.1293 11.4332C18.9437 11.1615 18.7116 10.9328 18.4332 10.7472C18.1615 10.5549 17.8433 10.4124 17.4787 10.3196C17.1207 10.2202 16.7263 10.1705 16.2955 10.1705C15.3674 10.1705 14.5753 10.3925 13.919 10.8366C13.2694 11.2808 12.7723 11.9205 12.4276 12.7557C12.0895 13.5909 11.9205 14.5985 11.9205 15.7784C11.9205 16.9716 12.0829 17.9924 12.4077 18.8409C12.7325 19.6894 13.2164 20.339 13.8594 20.7898C14.5024 21.2405 15.3011 21.4659 16.2557 21.4659C17.0975 21.4659 17.7969 21.3433 18.3537 21.098C18.9171 20.8527 19.3381 20.5047 19.6165 20.054C19.8949 19.6032 20.0341 19.0729 20.0341 18.4631L20.9886 18.5625H16.3352V14.625H25.3636V17.4489C25.3636 19.3049 24.9692 20.8925 24.1804 22.2116C23.3982 23.5241 22.3177 24.5317 20.9389 25.2344C19.5668 25.9304 17.9924 26.2784 16.2159 26.2784C14.2339 26.2784 12.4938 25.8575 10.9957 25.0156C9.49763 24.1738 8.32765 22.974 7.4858 21.4162C6.65057 19.8584 6.23295 18.0057 6.23295 15.858C6.23295 14.1742 6.48816 12.6828 6.99858 11.3835C7.51563 10.0843 8.23153 8.98722 9.14631 8.09233C10.0611 7.19081 11.1184 6.51136 12.3182 6.05398C13.518 5.58996 14.804 5.35795 16.1761 5.35795C17.3826 5.35795 18.5028 5.5303 19.5369 5.875C20.5777 6.21307 21.4957 6.69697 22.2912 7.3267C23.0933 7.94981 23.7396 8.68892 24.2301 9.54403C24.7206 10.3991 25.0189 11.3371 25.125 12.358H19.5369Z" fill="#01A8EF"/>
</svg>
