<svg width="23" height="24" viewBox="0 0 23 24" fill="none" xmlns="http://www.w3.org/2000/svg">
<path fill-rule="evenodd" clip-rule="evenodd" d="M13.6839 2.152C13.3293 2 12.8789 2 11.979 2C11.0791 2 10.6296 2 10.2741 2.152C10.0402 2.25175 9.82744 2.39878 9.64817 2.58465C9.46889 2.77051 9.32662 2.99154 9.22952 3.235C9.13944 3.458 9.10494 3.719 9.09056 4.098C9.08372 4.3725 9.01013 4.64068 8.87669 4.87736C8.74325 5.11403 8.55435 5.31142 8.32773 5.451C8.09653 5.5851 7.83663 5.65615 7.57211 5.65754C7.30759 5.65894 7.04702 5.59065 6.81452 5.459C6.49061 5.281 6.25581 5.183 6.0239 5.151C5.51654 5.08192 5.00353 5.2242 4.59598 5.547C4.29123 5.789 4.06602 6.193 3.61656 7C3.16615 7.807 2.9419 8.21 2.89111 8.605C2.82402 9.131 2.96202 9.663 3.27444 10.084C3.41627 10.276 3.61656 10.437 3.92611 10.639C4.38323 10.936 4.67648 11.442 4.67648 12C4.67648 12.558 4.38323 13.064 3.92706 13.36C3.61656 13.563 3.41627 13.724 3.27348 13.916C3.11973 14.1242 3.00682 14.362 2.94121 14.6158C2.8756 14.8696 2.85857 15.1343 2.89111 15.395C2.9419 15.789 3.16615 16.193 3.61656 17C4.06698 17.807 4.29123 18.21 4.59598 18.453C5.00231 18.776 5.51598 18.918 6.0239 18.849C6.25581 18.817 6.49061 18.719 6.81452 18.541C7.04713 18.4092 7.30789 18.3408 7.57259 18.3422C7.83729 18.3436 8.09737 18.4147 8.32869 18.549C8.79444 18.829 9.07044 19.344 9.09056 19.902C9.10494 20.282 9.13944 20.542 9.22952 20.765C9.42502 21.255 9.80069 21.645 10.2741 21.848C10.6287 22 11.0791 22 11.979 22C12.8789 22 13.3293 22 13.6839 21.848C13.9178 21.7483 14.1305 21.6012 14.3098 21.4154C14.4891 21.2295 14.6313 21.0085 14.7284 20.765C14.8185 20.542 14.853 20.282 14.8674 19.902C14.8866 19.344 15.1635 18.828 15.6302 18.549C15.8614 18.4149 16.1213 18.3439 16.3859 18.3425C16.6504 18.3411 16.9109 18.4093 17.1434 18.541C17.4674 18.719 17.7021 18.817 17.9341 18.849C18.442 18.919 18.9556 18.776 19.362 18.453C19.6667 18.211 19.8919 17.807 20.3414 17C20.7918 16.193 21.0161 15.79 21.0669 15.395C21.0993 15.1343 21.0821 14.8695 21.0163 14.6157C20.9505 14.3619 20.8374 14.1241 20.6835 13.916C20.5417 13.724 20.3414 13.563 20.0319 13.361C19.5747 13.064 19.2815 12.558 19.2815 12C19.2815 11.442 19.5747 10.936 20.0309 10.64C20.3414 10.437 20.5417 10.276 20.6845 10.084C20.8382 9.87579 20.9511 9.63799 21.0167 9.38422C21.0824 9.13044 21.0994 8.86565 21.0669 8.605C21.0161 8.211 20.7918 7.807 20.3414 7C19.891 6.193 19.6667 5.79 19.362 5.547C18.9544 5.2242 18.4414 5.08192 17.9341 5.151C17.7021 5.183 17.4674 5.281 17.1434 5.459C16.9108 5.59083 16.6501 5.65922 16.3854 5.65782C16.1207 5.65642 15.8606 5.58528 15.6293 5.451C15.4028 5.3113 15.2141 5.11385 15.0809 4.87719C14.9476 4.64052 14.8741 4.37241 14.8674 4.098C14.853 3.718 14.8185 3.458 14.7284 3.235C14.6313 2.99154 14.4891 2.77051 14.3098 2.58465C14.1305 2.39878 13.9178 2.25175 13.6839 2.152Z" fill="#B9BBC6"/>
<path d="M14.8761 12C14.8761 13.657 13.5785 15 11.9791 15C10.3796 15 9.08203 13.657 9.08203 12C9.08203 10.343 10.3787 9 11.9791 9C13.5795 9 14.8761 10.343 14.8761 12Z" fill="#1E1F24"/>
</svg>
