<svg width="24" height="24" viewBox="0 0 24 24" fill="none" xmlns="http://www.w3.org/2000/svg">
<path d="M22 13.8V11.8182C22 9.4494 22 8.2641 21.23 7.4946C21.1594 7.42359 21.0846 7.35599 21.006 7.2921C20.151 6.6 18.834 6.6 16.202 6.6H15.828C14.675 6.6 14.098 6.6 13.56 6.4623C13.2648 6.38634 12.9802 6.28004 12.712 6.1455C12.224 5.9016 11.816 5.5335 11 4.8L10.45 4.305C10.176 4.0584 10.04 3.936 9.896 3.828C9.27667 3.36598 8.51694 3.08275 7.716 3.0153C7.53 3 7.336 3 6.95 3C6.067 3 5.626 3 5.258 3.063C4.46784 3.1973 3.741 3.54282 3.17231 4.05449C2.60361 4.56615 2.21947 5.2202 2.07 5.9313C2 6.2634 2 6.6612 2 7.455V13.8C2 17.1939 2 18.8913 3.172 19.9452C4.344 20.9991 6.229 21 10 21H14C17.771 21 19.657 21 20.828 19.9452C21.999 18.8904 22 17.1939 22 13.8Z" fill="#ACD8F6"/>
<path d="M12 11C12.1989 11 12.3897 11.079 12.5303 11.2197C12.671 11.3603 12.75 11.5511 12.75 11.75V13H14C14.1989 13 14.3897 13.079 14.5303 13.2197C14.671 13.3603 14.75 13.5511 14.75 13.75C14.75 13.9489 14.671 14.1397 14.5303 14.2803C14.3897 14.421 14.1989 14.5 14 14.5H12.75V15.75C12.75 15.9489 12.671 16.1397 12.5303 16.2803C12.3897 16.421 12.1989 16.5 12 16.5C11.8011 16.5 11.6103 16.421 11.4697 16.2803C11.329 16.1397 11.25 15.9489 11.25 15.75V14.5H10C9.80109 14.5 9.61032 14.421 9.46967 14.2803C9.32902 14.1397 9.25 13.9489 9.25 13.75C9.25 13.5511 9.32902 13.3603 9.46967 13.2197C9.61032 13.079 9.80109 13 10 13H11.25V11.75C11.25 11.5511 11.329 11.3603 11.4697 11.2197C11.6103 11.079 11.8011 11 12 11Z" fill="#01A8EF"/>
</svg>
