<svg width="135" height="25" viewBox="0 0 269 48" fill="none" xmlns="http://www.w3.org/2000/svg">
    <g filter="url(#filter0_i_787_15361)">
        <rect x="155.946" width="67.4928" height="47.5417" rx="23.7708" fill="#A6E4FF"/>
    </g>
    <path d="M214.391 23.7708C214.391 31.7936 208.025 38.2974 200.173 38.2974C192.32 38.2974 185.955 31.7936 185.955 23.7708C185.955 15.7479 192.32 9.24414 200.173 9.24414C208.025 9.24414 214.391 15.7479 214.391 23.7708Z" fill="white"/>
    <path fill-rule="evenodd" clip-rule="evenodd"
          d="M223.439 23.7708C223.439 36.8991 213.022 47.5417 200.173 47.5417C187.323 47.5417 176.907 36.8991 176.907 23.7708C176.907 10.6426 187.323 0 200.173 0C213.022 0 223.439 10.6426 223.439 23.7708ZM200.173 38.2975C208.025 38.2975 214.391 31.7937 214.391 23.7708C214.391 15.748 208.025 9.24421 200.173 9.24421C192.32 9.24421 185.955 15.748 185.955 23.7708C185.955 31.7937 192.32 38.2975 200.173 38.2975Z"
          fill="#26B0EB"/>
    <path
        d="M120.856 34.8026C115.48 42.682 104.73 44.6519 96.7752 39.253C88.7485 33.8542 86.6701 22.6917 92.0452 14.5205C97.7069 5.9115 108.457 3.50391 116.627 8.97571C120.641 11.6751 123.221 15.8337 123.937 20.503L95.4852 20.43C94.0519 20.43 92.9052 21.5973 92.9052 23.0565C92.9052 24.5156 94.0519 25.683 95.4852 25.683H129.527V24.8804C129.742 16.8551 125.944 9.41346 119.279 4.8901C108.529 -2.40565 94.9836 0.439693 87.7451 11.4563C80.5784 22.3999 83.5168 36.3347 94.6252 43.8494C104.515 50.5614 118.204 47.862 125.156 37.8669L125.657 37.1373L121.286 34.219L120.856 34.8026Z"
        fill="#26B0EB"/>
    <path
        d="M40.5047 24.964C40.2885 34.5049 32.3605 42.5892 22.7749 42.5892C13.1172 42.5892 5.26129 34.1407 5.26129 24.3085C5.26129 13.8935 12.973 5.88207 22.847 5.88207C27.6758 5.88207 32.1443 7.92136 35.2434 11.3444L11.3154 27.2217C10.0901 28.0229 9.80185 29.698 10.5946 30.8633C11.3874 32.1015 13.0451 32.3928 14.1983 31.5916L42.7389 12.5097L42.3065 11.7814C38.1263 5.00809 30.847 0.929521 22.7749 0.856689C9.87392 0.929521 0 10.8346 0 24.09C0 37.1997 10.0181 47.4689 23.4235 47.5418C35.3876 47.5418 45.4056 37.2725 45.6939 25.0368V24.1628H40.4326L40.5047 24.964Z"
        fill="#26B0EB"/>
    <path
        d="M64.2129 40.1849C61.7141 33.6211 50.0766 1.75034 50.0766 1.75034H44.4363L59.8578 43.9773C60.6432 45.8735 62.1425 47.1134 64.5699 47.1134C67.0688 47.1134 68.5681 45.8735 69.2821 43.9773L84.061 3.71948C84.775 1.96913 83.4898 0 81.6335 0C80.5626 0 79.5631 0.656378 79.2061 1.67741C76.5644 8.38705 67.2116 34.4963 65.0697 40.112C64.9269 40.6225 64.3557 40.6225 64.2129 40.1849Z"
        fill="#26B0EB"/>
    <path
        d="M139.555 7.5839V1.28491H134.566V46.2568H139.555V22.5989C139.555 12.4913 145.826 6.26551 151.599 6.26551H153.523C154.877 6.26551 155.946 5.16685 155.946 3.77521C155.946 2.38357 154.877 1.28491 153.523 1.28491H151.243C146.325 1.28491 141.978 4.14143 139.555 7.5839Z"
        fill="#26B0EB"/>
    <path
        d="M263.271 5.74573C259.619 1.96373 254.535 0 248.592 0C242.648 0 237.564 1.96373 233.912 5.74573C230.403 9.38227 228.47 14.5461 228.47 20.2919V46.2568H238.71V20.2919C238.71 14.4734 242.935 10.0368 248.592 10.0368C254.249 10.0368 258.474 14.4734 258.474 20.2919V46.2568H268.714V20.2919C268.714 14.5461 266.78 9.38227 263.271 5.74573Z"
        fill="#26B0EB"/>
    <defs>
        <filter id="filter0_i_787_15361" x="155.946" y="0" width="67.4928" height="49.5417" filterUnits="userSpaceOnUse" color-interpolation-filters="sRGB">
            <feFlood flood-opacity="0" result="BackgroundImageFix"/>
            <feBlend mode="normal" in="SourceGraphic" in2="BackgroundImageFix" result="shape"/>
            <feColorMatrix in="SourceAlpha" type="matrix" values="0 0 0 0 0 0 0 0 0 0 0 0 0 0 0 0 0 0 127 0" result="hardAlpha"/>
            <feOffset dy="2"/>
            <feGaussianBlur stdDeviation="1"/>
            <feComposite in2="hardAlpha" operator="arithmetic" k2="-1" k3="1"/>
            <feColorMatrix type="matrix" values="0 0 0 0 0.301146 0 0 0 0 0.400217 0 0 0 0 0.491667 0 0 0 0.1 0"/>
            <feBlend mode="normal" in2="shape" result="effect1_innerShadow_787_15361"/>
        </filter>
    </defs>
</svg>
