<svg width="227" height="44" viewBox="0 0 227 44" fill="none" xmlns="http://www.w3.org/2000/svg">
<path d="M4 1C2.33333 1 1 2.33333 1 4C1 5.66667 2.33333 7 4 7C5.66667 7 7 5.66667 7 4C7 2.33333 5.66667 1 4 1Z" fill="white"/>
<path d="M218.293 43.7071C218.683 44.0976 219.317 44.0976 219.707 43.7071L226.071 37.3431C226.462 36.9526 226.462 36.3195 226.071 35.9289C225.681 35.5384 225.047 35.5384 224.657 35.9289L219 41.5858L213.343 35.9289C212.953 35.5384 212.319 35.5384 211.929 35.9289C211.538 36.3195 211.538 36.9526 211.929 37.3431L218.293 43.7071ZM1 4H2C2 2.88562 2.88562 2 4 2V1V0C1.78105 0 0 1.78105 0 4H1ZM4 1V2C5.11438 2 6 2.88562 6 4H7H8C8 1.78105 6.21895 0 4 0V1ZM7 4H6C6 5.11438 5.11438 6 4 6V7V8C6.21895 8 8 6.21895 8 4H7ZM4 7V6C2.88562 6 2 5.11438 2 4H1H0C0 6.21895 1.78105 8 4 8V7ZM20.5 23.5V24.5H199.5V23.5V22.5H20.5V23.5ZM199.5 23.5V24.5C209.717 24.5 218 32.7827 218 43H219H220C220 31.6782 210.822 22.5 199.5 22.5V23.5ZM4 7H3C3 16.665 10.835 24.5 20.5 24.5V23.5V22.5C11.9396 22.5 5 15.5604 5 7H4Z" fill="#01A8EF"/>
</svg>
