<svg width="224" height="53" viewBox="0 0 224 53" fill="none" xmlns="http://www.w3.org/2000/svg">
<path d="M220 1C218.333 1 217 2.33333 217 4C217 5.66667 218.333 7 220 7C221.667 7 223 5.66667 223 4C223 2.33333 221.667 1 220 1Z" fill="white"/>
<path d="M7.29289 52.7071C7.68342 53.0976 8.31658 53.0976 8.70711 52.7071L15.0711 46.3431C15.4616 45.9526 15.4616 45.3195 15.0711 44.9289C14.6805 44.5384 14.0474 44.5384 13.6569 44.9289L8 50.5858L2.34315 44.9289C1.95262 44.5384 1.31946 44.5384 0.928932 44.9289C0.538408 45.3195 0.538408 45.9526 0.928932 46.3431L7.29289 52.7071ZM217 4H218C218 2.88562 218.886 2 220 2V1V0C217.781 0 216 1.78105 216 4H217ZM220 1V2C221.114 2 222 2.88562 222 4H223H224C224 1.78105 222.219 0 220 0V1ZM223 4H222C222 5.11438 221.114 6 220 6V7V8C222.219 8 224 6.21895 224 4H223ZM220 7V6C218.886 6 218 5.11438 218 4H217H216C216 6.21895 217.781 8 220 8V7ZM220 7H219V8H220H221V7H220ZM200 28V27H28V28V29H200V28ZM8 48H7V52H8H9V48H8ZM28 28V27C16.402 27 7 36.402 7 48H8H9C9 37.5066 17.5066 29 28 29V28ZM220 8H219C219 18.4934 210.493 27 200 27V28V29C211.598 29 221 19.598 221 8H220Z" fill="#01A8EF"/>
</svg>
