<svg width="16" height="53" viewBox="0 0 16 53" fill="none" xmlns="http://www.w3.org/2000/svg">
<path d="M8 1C6.33333 1 5 2.33333 5 4C5 5.66667 6.33333 7 8 7C9.66667 7 11 5.66667 11 4C11 2.33333 9.66667 1 8 1Z" fill="white"/>
<path d="M7.29289 52.7071C7.68342 53.0976 8.31658 53.0976 8.70711 52.7071L15.0711 46.3431C15.4616 45.9526 15.4616 45.3195 15.0711 44.9289C14.6805 44.5384 14.0474 44.5384 13.6569 44.9289L8 50.5858L2.34315 44.9289C1.95262 44.5384 1.31946 44.5384 0.928932 44.9289C0.538408 45.3195 0.538408 45.9526 0.928932 46.3431L7.29289 52.7071ZM5 4H6C6 2.88562 6.88562 2 8 2V1V0C5.78105 0 4 1.78105 4 4H5ZM8 1V2C9.11438 2 10 2.88562 10 4H11H12C12 1.78105 10.219 0 8 0V1ZM11 4H10C10 5.11438 9.11438 6 8 6V7V8C10.219 8 12 6.21895 12 4H11ZM8 7V6C6.88562 6 6 5.11438 6 4H5H4C4 6.21895 5.78105 8 8 8V7ZM8 7H7V52H8H9V7H8Z" fill="#01A8EF"/>
</svg>
