<svg width="16" height="54" viewBox="0 0 16 54" fill="none" xmlns="http://www.w3.org/2000/svg">
<path d="M8 1.75977C6.33333 1.75977 5 3.0931 5 4.75977C5 6.42643 6.33333 7.75977 8 7.75977C9.66667 7.75977 11 6.42643 11 4.75977C11 3.0931 9.66667 1.75977 8 1.75977Z" fill="white"/>
<path d="M7.29289 53.4666C7.68342 53.8572 8.31658 53.8572 8.70711 53.4666L15.0711 47.1027C15.4616 46.7122 15.4616 46.079 15.0711 45.6885C14.6805 45.2979 14.0474 45.2979 13.6569 45.6885L8 51.3453L2.34315 45.6885C1.95262 45.2979 1.31946 45.2979 0.928932 45.6885C0.538408 46.079 0.538408 46.7122 0.928932 47.1027L7.29289 53.4666ZM5 4.75977H6C6 3.64538 6.88562 2.75977 8 2.75977V1.75977V0.759766C5.78105 0.759766 4 2.54081 4 4.75977H5ZM8 1.75977V2.75977C9.11438 2.75977 10 3.64538 10 4.75977H11H12C12 2.54081 10.219 0.759766 8 0.759766V1.75977ZM11 4.75977H10C10 5.87415 9.11438 6.75977 8 6.75977V7.75977V8.75977C10.219 8.75977 12 6.97872 12 4.75977H11ZM8 7.75977V6.75977C6.88562 6.75977 6 5.87415 6 4.75977H5H4C4 6.97872 5.78105 8.75977 8 8.75977V7.75977ZM8 7.75977H7V52.7595H8H9V7.75977H8Z" fill="#EB3D69"/>
</svg>
