<svg width="37" height="16" viewBox="0 0 37 16" fill="none" xmlns="http://www.w3.org/2000/svg">
<path d="M33 5C31.3333 5 30 6.33333 30 8C30 9.66667 31.3333 11 33 11C34.6667 11 36 9.66667 36 8C36 6.33333 34.6667 5 33 5Z" fill="white"/>
<path d="M0.292893 7.29289C-0.0976311 7.68342 -0.0976311 8.31658 0.292893 8.70711L6.65685 15.0711C7.04738 15.4616 7.68054 15.4616 8.07107 15.0711C8.46159 14.6805 8.46159 14.0474 8.07107 13.6569L2.41421 8L8.07107 2.34315C8.46159 1.95262 8.46159 1.31946 8.07107 0.928932C7.68054 0.538408 7.04738 0.538408 6.65685 0.928932L0.292893 7.29289ZM30 8H31C31 6.88562 31.8856 6 33 6V5V4C30.781 4 29 5.78105 29 8H30ZM33 5V6C34.1144 6 35 6.88562 35 8H36H37C37 5.78105 35.219 4 33 4V5ZM36 8H35C35 9.11438 34.1144 10 33 10V11V12C35.219 12 37 10.219 37 8H36ZM33 11V10C31.8856 10 31 9.11438 31 8H30H29C29 10.219 30.781 12 33 12V11ZM30 8V7H1V8V9H30V8Z" fill="#01A8EF"/>
</svg>
